# xmcd
#
# Track frame offsets: 
#        150
#        19458
#        40078
#        61918
#        74745
#        92155
#        107406
#        120394
#        143599
#        163049
#        179028
#
# Disc length: 2732 seconds
#
# Revision: 0
# Processed by: cddbd v1.5.2PL0 Copyright (c) Steve Scherf et al.
# Submitted via: ExactAudioCopy v1.0b3
#
DISCID=980aaa0b
DTITLE=Lasse Jensen - Energetic Boogie
DYEAR=1900
DGENRE=
TTITLE0=I'M The Boogie Man
TTITLE1=Boogie Woogie Be With Me
TTITLE2=Voodoo Man
TTITLE3=Mr. Pinetop's Job
TTITLE4=Swanee River Boogie
TTITLE5=Poet's Corner Blues
TTITLE6=Energetic Boogie
TTITLE7=Baby Gone Blues
TTITLE8=In The Heat
TTITLE9=St. Louis Blues
TTITLE10=Boogie Du Printemps
EXTD=
EXTT0=
EXTT1=
EXTT2=
EXTT3=
EXTT4=
EXTT5=
EXTT6=
EXTT7=
EXTT8=
EXTT9=
EXTT10=
PLAYORDER=
